<svg id="Capa_1" enable-background="new 0 0 512 512" height="512" viewBox="0 0 512 512" width="512" xmlns="http://www.w3.org/2000/svg"><g><path d="m492.561 158.013c-25.95-62.577-75.997-112.625-138.574-138.574l-157.987 236.561 157.987 236.561c62.577-25.949 112.625-75.997 138.574-138.574z" fill="#ba1956"/><g fill="#ff0f47"><path d="m492.561 158.013-236.561 97.987 236.561 97.987c12.517-30.185 19.439-63.276 19.439-97.987 0-34.712-6.922-67.802-19.439-97.987z"/><path d="m353.987 19.439c-30.185-12.517-63.275-19.439-97.987-19.439l-60 256 60 256c34.712 0 67.802-6.922 97.987-19.439l-97.987-236.561z"/><path d=""/><path d="m158.013 19.439c-62.576 25.95-112.624 75.998-138.574 138.574v195.973c25.949 62.577 75.997 112.625 138.574 138.574h77.987l20-236.56-20-236.561z"/></g><path d="m158.013 492.561c30.185 12.517 63.276 19.439 97.987 19.439v-256z" fill="#ff415d"/><path d="m256 0c-34.711 0-67.802 6.922-97.987 19.439l97.987 236.561z" fill="#ff415d"/><path d="m19.439 158.013c-12.517 30.185-19.439 63.275-19.439 97.987 0 34.711 6.922 67.802 19.439 97.987l236.561-97.987z" fill="#ff415d"/><path d="m312.333 120h-56.333l-60 136 60 136h56.333l79.667-79.667v-112.666z" fill="#ff415d"/><path d="m199.667 120-79.667 79.667v112.666l79.667 79.667h56.333v-272z" fill="#ff7472"/></g></svg>